<svg width="132" height="224" viewBox="0 0 132 224" fill="none" xmlns="http://www.w3.org/2000/svg">
<path d="M109.93 108.743C104.205 103.634 103.614 93.4942 108.374 87.4762C115.654 78.2741 120 66.6446 120 54C120 24.1766 95.8234 0 66 0C36.1766 0 12 24.1766 12 54C12 66.6446 16.346 78.2741 23.6257 87.4762C28.3865 93.4942 27.7945 103.634 22.0697 108.743C8.52674 120.83 0 138.419 0 158C0 194.451 29.5492 224 66 224C102.451 224 132 194.451 132 158C132 138.419 123.473 120.83 109.93 108.743Z" fill="black"/>
</svg>
