<svg width="133" height="277" viewBox="0 0 133 277" fill="none" xmlns="http://www.w3.org/2000/svg">
<path d="M132 211C132 247.451 102.451 277 66 277C29.5492 277 0 247.451 0 211C0 174.549 29.5492 145 66 145C102.451 145 132 174.549 132 211Z" fill="black"/>
<path d="M133 66C133 102.451 103.451 132 67 132C30.5492 132 1 102.451 1 66C1 29.5492 30.5492 0 67 0C103.451 0 133 29.5492 133 66Z" fill="black"/>
<path d="M94.216 123.965C82.2913 131.227 82.2983 147.61 94.1928 154.922C99.0502 157.909 104.337 160.615 110 163H23C28.6573 160.657 33.9366 157.988 38.784 155.035C50.7087 147.772 50.7017 131.39 38.8072 124.078C33.9498 121.091 28.6631 118.385 23 116L110 116C104.343 118.343 99.0634 121.012 94.216 123.965Z" fill="black"/>
</svg>
