<svg width="132" height="300" viewBox="0 0 132 300" fill="none" xmlns="http://www.w3.org/2000/svg">
<path d="M132 234C132 270.451 102.451 300 66 300C29.5492 300 0 270.451 0 234C0 197.549 29.5492 168 66 168C102.451 168 132 197.549 132 234Z" fill="black"/>
<path d="M132 66C132 102.451 102.451 132 66 132C29.5492 132 0 102.451 0 66C0 29.5492 29.5492 0 66 0C102.451 0 132 29.5492 132 66Z" fill="black"/>
<path d="M84.3529 136.723C78.0717 144.394 78.0829 155.372 84.3493 163.055C91.6019 171.947 100.242 179.705 110 186H23C32.7686 179.802 41.4103 172.115 48.6471 163.277C54.9283 155.606 54.9171 144.628 48.6507 136.945C41.3981 128.053 32.7579 120.295 23 114L110 114C100.231 120.198 91.5897 127.885 84.3529 136.723Z" fill="black"/>
</svg>
